<svg
  xmlns="http://www.w3.org/2000/svg"
  className="w-4 h-4 text-gray-600"
  viewBox="0 0 24 24"
  fill="currentColor"
>
  <path d="M12 2C6.48 2 2 6.48 2 12s4.48 10 10 10 10-4.48 10-10S17.52 2 12 2zm0 18
    c-4.41 0-8-3.59-8-8s3.59-8 8-8 8 3.59 8 8-3.59 8-8 8zm-.06-5.54c.83 0 1.58-.38 2.1-1l1.42
    1.42c-.87 1.01-2.14 1.62-3.52 1.62-2.49 0-4.5-2.01-4.5-4.5s2.01-4.5 4.5-4.5c1.38 0 2.65.61
    3.52 1.62l-1.42 1.42c-.52-.62-1.27-1-2.1-1-1.48 0-2.68 1.2-2.68 2.68s1.2 2.68 2.68 2.68z" />
</svg>
